# xmcd
#
# Track frame offsets: 
#        150
#        15416
#        30504
#        45557
#        63506
#        77456
#        95017
#        111651
#        126750
#
# Disc length: 1896 seconds
#
# Revision: 1
# Processed by: cddbd v1.5.2PL0 Copyright (c) Steve Scherf et al.
# Submitted via: ExactAudioCopy v0.99pb4
#
DISCID=6c076609
DTITLE=The Beatles - Last Licks Live (The Rooftop Concert) (Dr. Ebbett
DTITLE=s)
DYEAR=1969
DGENRE=Rock
TTITLE0=Get Back (one)
TTITLE1=Get Back (two)
TTITLE2=Don't Let Me Down (one)
TTITLE3=I've Got A Feeling (one)
TTITLE4=One After 909
TTITLE5=Dig A Pony
TTITLE6=I've Got A Feeling (two)
TTITLE7=Don't Let Me Down (two)
TTITLE8=Get Back (three)
EXTD=
EXTT0=
EXTT1=
EXTT2=
EXTT3=
EXTT4=
EXTT5=
EXTT6=
EXTT7=
EXTT8=
PLAYORDER=
